<?xml version="1.0" encoding="UTF-8"?>
<svg id="a" data-name="Layer 1" xmlns="http://www.w3.org/2000/svg" width="290.441" height="100" viewBox="0 0 290.441 100">
  <g>
    <path d="M29.252,63.69C10.942,66.452.083,69.888.083,73.613s10.859,7.162,29.169,9.924v-19.848Z"/>
    <path d="M221.327,59.553v28.12c41.467-2.906,69.114-8.115,69.114-14.06s-27.646-11.154-69.114-14.06Z"/>
  </g>
  <g>
    <path d="M36.206,73.08c0-10.959,6.829-15.493,13.082-15.493,4.419,0,7.689,2.296,8.78,4.877v-14.631h8.376v40.166h-8.376v-4.304c-1.091,2.583-4.361,4.877-8.78,4.877-6.253,0-13.082-4.533-13.082-15.492ZM58.411,73.08c0-5.853-3.442-8.549-7.114-8.549-3.73,0-7.173,2.697-7.173,8.549s3.443,8.549,7.173,8.549c3.672,0,7.114-2.697,7.114-8.549Z"/>
    <path d="M71.271,73.022c0-11.132,7.058-15.436,14.976-15.436,7.689,0,14.173,4.017,14.173,15.32,0,1.091-.058,1.665-.173,2.296h-21c.458,4.993,3.041,7,7.172,7,3.845,0,5.508-1.549,6.197-3.959h7.402c-1.492,6.829-6.771,10.328-13.713,10.328-7.574,0-15.034-4.188-15.034-15.549ZM92.502,70.268c-.115-3.443-1.894-6.311-6.484-6.311-3.903,0-6.197,2.179-6.771,6.311h13.255Z"/>
    <path d="M103.525,78.186h7.516c.287,2.812,2.181,4.132,5.451,4.132,2.812,0,4.706-.976,4.706-3.099,0-1.378-.918-2.238-2.87-2.64l-5.508-1.147c-6.253-1.434-8.492-4.762-8.492-8.721,0-5.797,4.993-9.125,12.222-9.125,7.976,0,12.166,3.903,12.279,10.329h-7c-.344-2.985-2.294-4.074-5.164-4.074s-4.188,1.033-4.188,2.639c0,1.492,1.09,2.467,3.099,2.87l5.622,1.205c4.706,1.033,8.607,3.212,8.607,8.492,0,6.657-6.14,9.525-13.369,9.525-7.976,0-12.853-3.499-12.911-10.386Z"/>
    <path d="M133.941,50.07c0-2.639,2.179-4.648,4.59-4.648s4.59,2.009,4.59,4.648c0,2.583-2.181,4.59-4.59,4.59s-4.59-2.008-4.59-4.59ZM134.342,58.161h8.378v29.836h-8.378v-29.836Z"/>
    <path d="M148.174,89.719h7.402c.171,2.87,3.499,3.788,6.196,3.788,3.959,0,7.173-1.951,7.173-6.598v-3.73h-.115c-1.434,2.237-4.59,4.073-8.663,4.073-6.026,0-12.624-3.959-12.624-14.861,0-10.788,6.656-14.804,12.624-14.804,4.073,0,7.229,1.836,8.663,4.074h.115v-3.499h8.378v28.747c0,11.073-9.296,13.082-15.32,13.082-5.222,0-13.771-1.492-13.829-10.272ZM169.347,72.391c0-5.337-3.214-7.86-6.886-7.86-3.786,0-7,2.523-7,7.86,0,5.393,3.214,7.86,7,7.86,3.672,0,6.886-2.467,6.886-7.86Z"/>
    <path d="M198.214,64.53c-3.499,0-6.253,2.008-6.253,6.54v16.927h-8.378v-29.836h8.378v6.253h.344c.516-2.812,3.385-6.829,9.525-6.829,5.795,0,10.27,3.73,10.27,11.477v18.935h-8.378v-16.927c0-4.533-2.008-6.54-5.508-6.54Z"/>
  </g>
  <g>
    <path d="M58.108.55h8.378v22.607l10.959-12.278h9.238l-12.05,12.68,13.6,17.157h-9.238l-9.525-11.763-2.983,3.156v8.607h-8.378V.55Z"/>
    <path d="M88.469,25.741c0-11.132,7.058-15.436,14.976-15.436,7.689,0,14.173,4.017,14.173,15.32,0,1.091-.058,1.665-.173,2.296h-21c.458,4.993,3.041,7,7.172,7,3.845,0,5.508-1.549,6.197-3.959h7.402c-1.492,6.829-6.771,10.328-13.713,10.328-7.574,0-15.034-4.188-15.034-15.549ZM109.7,22.986c-.115-3.443-1.894-6.311-6.484-6.311-3.903,0-6.197,2.179-6.771,6.311h13.255Z"/>
    <path d="M121.01,32.798c0-6.6,5.393-8.034,10.557-8.779l5.05-.747c2.754-.402,3.615-.86,3.615-2.525v-.401c0-3.156-2.065-4.017-4.648-4.017-2.697,0-5.106.86-5.106,3.959v.574h-7.86v-1.378c0-5.853,3.901-9.181,13.197-9.181,9.008,0,12.622,3.214,12.622,9.698v20.713h-7.976v-5.279h-.343c-.575,1.607-2.985,5.853-9.525,5.853-4.877,0-9.583-2.352-9.583-8.492ZM140.232,30.331v-3.328c-.458.689-1.894.918-3.212,1.147l-4.19.747c-2.581.401-3.442,1.663-3.442,3.212,0,1.836,1.205,3.214,4.073,3.214,3.959,0,6.771-2.64,6.771-4.993Z"/>
    <path d="M154.696.55h8.378v40.166h-8.378V.55Z"/>
    <path d="M167.897,25.741c0-11.132,7.058-15.436,14.976-15.436,7.689,0,14.173,4.017,14.173,15.32,0,1.091-.058,1.665-.173,2.296h-21c.458,4.993,3.041,7,7.172,7,3.845,0,5.508-1.549,6.197-3.959h7.402c-1.492,6.829-6.771,10.328-13.713,10.328-7.574,0-15.034-4.188-15.034-15.549ZM189.128,22.986c-.115-3.443-1.894-6.311-6.484-6.311-3.903,0-6.197,2.179-6.771,6.311h13.255Z"/>
    <path d="M208.872,42.094c.631-1.493.631-2.411-.058-4.074l-10.959-27.14h8.607l6.942,19.278,7.115-19.278h8.607l-12.222,30.066c-3.73,9.238-7.518,12.166-16.067,11.246v-7.056c5.911.745,7.345-1.436,8.034-3.041Z"/>
  </g>
  <g>
    <path d="M271.554,74.872l-9.025-16.322h1.55c4.083,0,7.392-3.31,7.392-7.392v-7.026c0-10.21-8.276-18.486-18.486-18.486,0,0-3.218,0-5.328,0,0-5.703,0-16.484,0-16.484,0-3.723-3.018-6.741-6.741-6.741h-2.933v72.452h33.571Z" fill="#fff"/>
    <path d="M251.079,38.04h2.087c2.352,0,4.262,1.91,4.262,4.262v5.09c0,.962-.781,1.743-1.743,1.743h-2.087c-2.352,0-4.262-1.91-4.262-4.262v-5.09c0-.962.781-1.743,1.743-1.743Z" fill="#060808"/>
    <path d="M275.242,51.156v-7.026c0-9.76-6.408-18.044-15.235-20.885L279.711,0h-12.298s-17.135,20.215-17.135,20.215v-11.054c0-4.988-4.059-9.046-9.046-9.046h-5.238v78.018h4.61V4.724s.628,0,.628,0c2.446,0,4.436,1.991,4.436,4.437v19.941s7.634,0,7.634,0c8.286,0,15.029,6.742,15.029,15.029v7.026c0,2.166-1.76,3.929-3.925,3.935h0s-15.07-.001-15.07-.001v1.225c0,2.001,1.622,3.624,3.624,3.624h6.643s10.504,18.194,10.504,18.194h7.227s-9.615-16.654-9.615-16.654c4.36-1.407,7.525-5.5,7.525-10.323Z"/>
  </g>
</svg>