<?xml version="1.0" encoding="UTF-8"?>
<svg id="a" data-name="Layer 1" xmlns="http://www.w3.org/2000/svg" width="290.441" height="100" viewBox="0 0 290.441 100">
  <g>
    <path d="M29.382,63.364C11.081,66.125.227,69.56.227,73.283s10.854,7.158,29.155,9.919v-19.838Z"/>
    <path d="M221.362,59.23v28.106c41.447-2.904,69.079-8.111,69.079-14.053s-27.632-11.148-69.079-14.053Z"/>
  </g>
  <g>
    <path d="M36.331,72.747c0-10.956,6.826-15.487,13.078-15.487,4.416,0,7.686,2.294,8.776,4.875v-14.627h8.374v40.152h-8.374v-4.302c-1.09,2.581-4.36,4.876-8.776,4.876-6.252,0-13.078-4.531-13.078-15.487ZM58.529,72.747c0-5.851-3.441-8.547-7.112-8.547-3.728,0-7.17,2.696-7.17,8.547s3.441,8.546,7.17,8.546c3.672,0,7.112-2.696,7.112-8.546Z"/>
    <path d="M71.379,72.69c0-11.128,7.055-15.43,14.97-15.43,7.686,0,14.167,4.015,14.167,15.315,0,1.09-.057,1.663-.172,2.294h-20.994c.459,4.99,3.041,6.998,7.17,6.998,3.843,0,5.507-1.549,6.195-3.959h7.399c-1.492,6.826-6.768,10.325-13.709,10.325-7.571,0-15.028-4.188-15.028-15.544ZM92.602,69.936c-.115-3.442-1.893-6.31-6.482-6.31-3.9,0-6.195,2.179-6.769,6.31h13.251Z"/>
    <path d="M103.616,77.851h7.515c.286,2.811,2.179,4.13,5.448,4.13,2.812,0,4.704-.975,4.704-3.098,0-1.376-.918-2.237-2.869-2.638l-5.507-1.148c-6.251-1.433-8.489-4.761-8.489-8.718,0-5.793,4.991-9.12,12.218-9.12,7.972,0,12.16,3.9,12.275,10.324h-6.998c-.344-2.982-2.294-4.072-5.162-4.072s-4.188,1.032-4.188,2.639c0,1.491,1.09,2.466,3.098,2.868l5.621,1.204c4.703,1.032,8.604,3.213,8.604,8.489,0,6.653-6.138,9.522-13.365,9.522-7.972,0-12.849-3.499-12.906-10.383Z"/>
    <path d="M134.018,49.746c0-2.639,2.179-4.647,4.589-4.647s4.589,2.008,4.589,4.647c0,2.58-2.18,4.589-4.589,4.589s-4.589-2.008-4.589-4.589ZM134.419,57.833h8.374v29.827h-8.374v-29.827Z"/>
    <path d="M148.243,89.381h7.399c.173,2.868,3.499,3.786,6.195,3.786,3.959,0,7.17-1.95,7.17-6.596v-3.728h-.115c-1.434,2.237-4.589,4.072-8.662,4.072-6.022,0-12.618-3.957-12.618-14.856,0-10.784,6.653-14.799,12.618-14.799,4.073,0,7.227,1.836,8.662,4.072h.115v-3.499h8.374v28.738c0,11.07-9.292,13.078-15.315,13.078-5.219,0-13.766-1.492-13.824-10.267ZM169.408,72.058c0-5.335-3.212-7.859-6.883-7.859-3.786,0-6.998,2.524-6.998,7.859,0,5.392,3.213,7.859,6.998,7.859,3.671,0,6.883-2.467,6.883-7.859Z"/>
    <path d="M198.262,64.2c-3.499,0-6.252,2.008-6.252,6.54v16.921h-8.374v-29.827h8.374v6.252h.345c.516-2.811,3.384-6.825,9.521-6.825,5.793,0,10.267,3.728,10.267,11.471v18.929h-8.374v-16.921c0-4.531-2.007-6.54-5.507-6.54Z"/>
  </g>
  <g>
    <path d="M58.224.251h8.374v22.6l10.956-12.275h9.235l-12.045,12.677,13.594,17.15h-9.235l-9.521-11.759-2.983,3.155v8.604h-8.374V.251Z"/>
    <path d="M88.57,25.432c0-11.128,7.055-15.429,14.97-15.429,7.686,0,14.167,4.015,14.167,15.315,0,1.09-.057,1.664-.172,2.294h-20.994c.459,4.99,3.041,6.998,7.17,6.998,3.843,0,5.507-1.549,6.195-3.957h7.399c-1.492,6.826-6.768,10.324-13.709,10.324-7.571,0-15.028-4.187-15.028-15.544ZM109.793,22.678c-.115-3.441-1.893-6.309-6.482-6.309-3.901,0-6.195,2.179-6.769,6.309h13.251Z"/>
    <path d="M121.094,32.487c0-6.597,5.392-8.031,10.554-8.776l5.048-.746c2.753-.402,3.614-.86,3.614-2.524v-.401c0-3.155-2.066-4.015-4.646-4.015-2.696,0-5.105.86-5.105,3.958v.573h-7.859v-1.377c0-5.851,3.901-9.178,13.193-9.178,9.006,0,12.619,3.212,12.619,9.694v20.707h-7.973v-5.277h-.344c-.574,1.606-2.983,5.851-9.522,5.851-4.875,0-9.579-2.352-9.579-8.489ZM140.309,30.02v-3.327c-.459.689-1.893.918-3.213,1.147l-4.187.745c-2.581.402-3.442,1.664-3.442,3.212,0,1.836,1.204,3.212,4.072,3.212,3.959,0,6.769-2.639,6.769-4.99Z"/>
    <path d="M154.764.251h8.374v40.152h-8.374V.251Z"/>
    <path d="M167.958,25.432c0-11.128,7.055-15.429,14.97-15.429,7.686,0,14.167,4.015,14.167,15.315,0,1.09-.057,1.664-.172,2.294h-20.994c.459,4.99,3.041,6.998,7.17,6.998,3.843,0,5.507-1.549,6.195-3.957h7.399c-1.492,6.826-6.768,10.324-13.709,10.324-7.571,0-15.028-4.187-15.028-15.544ZM189.181,22.678c-.115-3.441-1.893-6.309-6.482-6.309-3.9,0-6.195,2.179-6.769,6.309h13.251Z"/>
    <path d="M208.913,41.779c.631-1.491.631-2.409-.057-4.073l-10.956-27.131h8.604l6.941,19.273,7.113-19.273h8.604l-12.217,30.056c-3.728,9.235-7.514,12.161-16.061,11.242v-7.055c5.909.745,7.342-1.434,8.031-3.04Z"/>
  </g>
</svg>