<?xml version="1.0" encoding="UTF-8"?>
<svg id="Content" xmlns="http://www.w3.org/2000/svg" viewBox="0 0 172.93 95.75">
  <defs>
    <style>
      .cls-1 {
        fill: #5dc8dc;
      }

      .cls-2 {
        fill: #010101;
      }
    </style>
  </defs>
  <path class="cls-1" d="M124.01,2.6h45.62v55.73c-2.24-5.13-7.36-8.71-13.32-8.71-6.8,0-10.36,4.36-10.68,4.68-2.44,2.43-6.14,4.02-10.04,4.02-8.02,0-14.53-6.5-14.53-14.53s6.5-14.53,14.53-14.53c4.01,0,7.64,1.63,10.27,4.26,1,1,2.38,1.67,3.91,1.67,3.07,0,5.55-2.48,5.55-5.55,0-1.3-.44-2.51-1.19-3.45-4.3-5.52-11.01-9.07-18.55-9.07-6.67,0-12.7,2.78-16.98,7.25l-30.29,29.94c-2.84,2.7-6.38,4.01-10.27,4.01-8.02,0-14.53-6.5-14.53-14.53s6.5-14.53,14.53-14.53c4.01,0,7.64,1.63,10.27,4.26,1,1,2.38,1.67,3.91,1.67,3.07,0,5.55-2.48,5.55-5.55,0-1.3-.47-2.54-1.21-3.49-4.3-5.5-11-9.04-18.53-9.04-6.66,0-12.67,2.77-16.95,7.22l-30.31,29.96c-2.61,2.49-6.39,4.02-10.28,4.02-8.02,0-14.53-6.5-14.53-14.53s6.5-14.53,14.53-14.53c4.01,0,7.64,1.63,10.27,4.26,1,1,2.38,1.67,3.91,1.67,3.07,0,5.55-2.48,5.55-5.55,0-1.3-.44-2.51-1.19-3.45-4.3-5.52-11.01-9.07-18.55-9.07-4.22,0-8.17,1.11-11.59,3.05,0-.15,0-17.58,0-17.58h117.61"/>
  <g>
    <path class="cls-2" d="M7.66,71.81h4.76v11.19h-.9l7.64-11.19h5.73l-9.21,13.13-.03-2.4,10.74,13.2h-6.18l-8.79-10.91h1.01v10.91h-4.76v-23.94Z"/>
    <path class="cls-2" d="M37.68,71.81h15.01v4.24h-12.16l1.91-1.95v19.35l-1.91-1.95h12.47v4.24h-15.32v-23.94ZM41.02,81.78h10.39v4.34h-10.39v-4.34Z"/>
    <path class="cls-2" d="M72.19,71.81h5.18l8.9,23.94h-5.04l-7.05-20.78h1.18l-7.02,20.78h-5.07l8.93-23.94ZM70,85.85h9.24l1.49,4.13h-12.23l1.49-4.13Z"/>
    <path class="cls-2" d="M97.69,71.81h4.79v21.65l-1.95-1.95h11.01v4.24h-13.86v-23.94Z"/>
    <path class="cls-2" d="M123.86,71.81h15.01v4.24h-12.16l1.91-1.95v19.35l-1.91-1.95h12.47v4.24h-15.32v-23.94ZM127.19,81.78h10.39v4.34h-10.39v-4.34Z"/>
    <path class="cls-2" d="M158.81,84.91l-9.24-13.1h5.7l6.74,10.39h-1.7l6.92-10.39h5.7l-9.31,13.13v10.81h-4.79v-10.84Z"/>
  </g>
  <path class="cls-2" d="M6.47.14v18.55c-2.45,1.53-4.65,3.53-6.47,6.02l.67.52c5.09-3.08,11.9-5.64,19.85-5.64,6.53,0,12.59,2.96,16.61,8.12v.02c.43.53.67,1.22.67,1.93,0,1.71-1.39,3.09-3.09,3.09-1.06,0-1.82-.6-2.18-.95-3.21-3.21-7.47-4.98-12.01-4.98-9.37,0-16.99,7.62-16.99,16.99s7.62,16.99,16.99,16.99c4.48,0,8.85-1.71,11.98-4.7h.02s30.32-29.99,30.32-29.99l.04-.04c4.01-4.17,9.4-6.46,15.18-6.46,6.52,0,12.57,2.95,16.6,8.1.43.55.68,1.27.68,1.97,0,1.71-1.39,3.09-3.09,3.09-1.06,0-1.82-.6-2.18-.95-3.21-3.21-7.47-4.98-12.01-4.98-9.37,0-16.99,7.62-16.99,16.99s7.62,16.99,16.99,16.99c4.61,0,8.75-1.62,11.97-4.69l.02-.02,30.31-29.96.05-.05c4.01-4.18,9.41-6.49,15.2-6.49,6.53,0,12.59,2.96,16.61,8.12v.02c.43.53.67,1.22.67,1.93,0,1.71-1.39,3.09-3.09,3.09-1.06,0-1.82-.6-2.18-.95-3.21-3.21-7.47-4.98-12.01-4.98-9.37,0-16.99,7.62-16.99,16.99s7.62,16.99,16.99,16.99c4.4,0,8.8-1.77,11.77-4.74.03-.03.09-.09.17-.18,1.29-1.41,4.16-3.78,8.77-3.78,6.47,0,11.02,5.12,11.47,8.7h4.3V.14H6.47ZM167.17,51.09c-2.99-2.48-6.81-3.92-10.86-3.92-6.5,0-10.56,3.37-12.4,5.38l-.04.04c-2.07,2.06-5.16,3.28-8.28,3.28-6.66,0-12.07-5.42-12.07-12.07s5.42-12.07,12.07-12.07c3.22,0,6.26,1.26,8.54,3.54,1.54,1.54,3.55,2.39,5.65,2.39,4.42,0,8.01-3.59,8.01-8.01,0-1.81-.61-3.57-1.71-4.97-4.96-6.36-12.43-10.01-20.49-10.01-3.6,0-7.09.72-10.37,2.15-3.15,1.37-5.97,3.33-8.36,5.83l-30.25,29.9c-2.32,2.2-5.2,3.32-8.56,3.32-6.66,0-12.07-5.42-12.07-12.07s5.42-12.07,12.07-12.07c3.22,0,6.26,1.26,8.54,3.54,1.54,1.54,3.55,2.39,5.65,2.39,4.42,0,8.01-3.59,8.01-8.01,0-1.81-.62-3.59-1.73-5-4.96-6.34-12.42-9.98-20.46-9.98-3.59,0-7.08.72-10.35,2.14-3.15,1.37-5.96,3.32-8.35,5.8l-30.27,29.92c-2.19,2.08-5.39,3.33-8.57,3.33-6.66,0-12.07-5.42-12.07-12.07s5.42-12.07,12.07-12.07c3.22,0,6.26,1.26,8.54,3.54,1.54,1.54,3.55,2.39,5.65,2.39,4.42,0,8.01-3.59,8.01-8.01,0-1.81-.61-3.57-1.71-4.97-4.96-6.36-12.43-10.01-20.49-10.01-3.13,0-6.23.57-9.13,1.66V5.05h155.78v46.03Z"/>
</svg>