<?xml version="1.0" encoding="UTF-8"?>
<svg id="a" data-name="Layer 1" xmlns="http://www.w3.org/2000/svg" width="257.428" height="100" viewBox="0 0 257.428 100">
  <g>
    <path d="M240.323,73.139l-3.659-6.338c4.704-1.518,8.117-5.933,8.117-11.136v-7.579c0-10.528-6.912-19.465-16.435-22.53L249.601.48h-13.266l-18.485,21.807v-11.925c0-5.381-4.378-9.758-9.759-9.758h-5.651v72.455c-9.579,1.752-15.928,4.804-15.928,8.278,0,5.437,15.529,9.844,34.686,9.844s34.686-4.407,34.686-9.844c0-3.428-6.193-6.438-15.561-8.199ZM207.414,81.248V5.576h.678c2.639,0,4.786,2.148,4.786,4.787v21.511h8.235c8.939,0,16.213,7.273,16.213,16.213v7.579c0,2.337-1.899,4.239-4.234,4.245v-.002h-16.257v1.322c0,2.159,1.75,3.909,3.909,3.909h7.166l9.3,16.108h-29.795Z"/>
    <path d="M221.431,53.486h2.252c1.039,0,1.881-.842,1.881-1.881v-5.491c0-2.539-2.059-4.598-4.598-4.598h-2.252c-1.039,0-1.881.842-1.881,1.881v5.491c0,2.539,2.059,4.598,4.598,4.598Z"/>
  </g>
  <g>
    <path d="M.209,73.415c0-10.804,6.732-15.274,12.898-15.274,4.356,0,7.579,2.263,8.656,4.808v-14.424h8.258v39.597h-8.258v-4.243c-1.077,2.546-4.299,4.808-8.656,4.808-6.166,0-12.898-4.468-12.898-15.272ZM22.101,73.415c0-5.77-3.393-8.428-7.013-8.428-3.677,0-7.073,2.658-7.073,8.428s3.396,8.428,7.073,8.428c3.62,0,7.013-2.658,7.013-8.428Z"/>
    <path d="M34.778,73.358c0-10.975,6.956-15.217,14.762-15.217,7.582,0,13.972,3.96,13.972,15.103,0,1.076-.057,1.641-.171,2.263h-20.701c.452,4.922,2.998,6.901,7.07,6.901,3.791,0,5.43-1.527,6.11-3.903h7.297c-1.472,6.732-6.675,10.182-13.521,10.182-7.465,0-14.819-4.129-14.819-15.329ZM55.707,70.643c-.114-3.394-1.867-6.222-6.391-6.222-3.848,0-6.11,2.148-6.675,6.222h13.066Z"/>
    <path d="M66.574,78.449h7.411c.281,2.772,2.148,4.074,5.374,4.074,2.77,0,4.637-.962,4.637-3.055,0-1.358-.903-2.207-2.827-2.603l-5.43-1.131c-6.166-1.414-8.371-4.694-8.371-8.597,0-5.715,4.922-8.995,12.049-8.995,7.863,0,11.992,3.848,12.105,10.183h-6.903c-.338-2.943-2.262-4.017-5.089-4.017s-4.129,1.019-4.129,2.601c0,1.471,1.074,2.432,3.055,2.829l5.541,1.188c4.641,1.019,8.485,3.167,8.485,8.371,0,6.563-6.053,9.39-13.18,9.39-7.863,0-12.671-3.45-12.728-10.238Z"/>
    <path d="M96.56,50.731c0-2.601,2.148-4.582,4.527-4.582s4.524,1.981,4.524,4.582c0,2.546-2.148,4.525-4.524,4.525s-4.527-1.979-4.527-4.525ZM96.955,58.708h8.261v29.414h-8.261v-29.414Z"/>
    <path d="M110.592,89.818h7.297c.167,2.829,3.45,3.734,6.106,3.734,3.905,0,7.073-1.924,7.073-6.504v-3.677h-.114c-1.415,2.205-4.527,4.015-8.542,4.015-5.939,0-12.443-3.903-12.443-14.65,0-10.635,6.561-14.595,12.443-14.595,4.015,0,7.127,1.81,8.542,4.017h.114v-3.45h8.258v28.34c0,10.916-9.164,12.897-15.103,12.897-5.146,0-13.574-1.471-13.631-10.126ZM131.464,72.736c0-5.261-3.169-7.749-6.789-7.749-3.731,0-6.899,2.488-6.899,7.749,0,5.317,3.169,7.749,6.899,7.749,3.62,0,6.789-2.432,6.789-7.749Z"/>
    <path d="M159.924,64.986c-3.45,0-6.166,1.979-6.166,6.448v16.688h-8.258v-29.414h8.258v6.165h.341c.509-2.772,3.336-6.732,9.389-6.732,5.715,0,10.125,3.677,10.125,11.314v18.667h-8.258v-16.688c0-4.468-1.981-6.448-5.43-6.448Z"/>
  </g>
  <g>
    <path d="M21.801,1.913h8.261v22.287l10.804-12.104h9.108l-11.881,12.5,13.407,16.914h-9.108l-9.389-11.597-2.941,3.112v8.485h-8.261V1.913Z"/>
    <path d="M51.733,26.746c0-10.975,6.956-15.217,14.762-15.217,7.582,0,13.972,3.96,13.972,15.103,0,1.076-.057,1.641-.171,2.263h-20.701c.452,4.922,2.998,6.901,7.07,6.901,3.791,0,5.43-1.527,6.11-3.903h7.297c-1.472,6.732-6.675,10.182-13.521,10.182-7.465,0-14.819-4.129-14.819-15.329ZM72.662,24.031c-.114-3.394-1.867-6.222-6.391-6.222-3.848,0-6.11,2.148-6.675,6.222h13.066Z"/>
    <path d="M83.813,33.704c0-6.506,5.317-7.92,10.406-8.654l4.979-.736c2.717-.396,3.563-.848,3.563-2.489v-.395c0-3.112-2.034-3.96-4.581-3.96-2.66,0-5.036.848-5.036,3.903v.565h-7.749v-1.358c0-5.77,3.848-9.051,13.012-9.051,8.88,0,12.443,3.169,12.443,9.561v20.42h-7.863v-5.205h-.338c-.569,1.584-2.944,5.77-9.392,5.77-4.808,0-9.446-2.319-9.446-8.371ZM102.761,31.272v-3.281c-.452.679-1.867.905-3.165,1.131l-4.132.736c-2.543.395-3.393,1.64-3.393,3.167,0,1.81,1.188,3.169,4.015,3.169,3.905,0,6.675-2.603,6.675-4.922Z"/>
    <path d="M117.021,1.913h8.261v39.597h-8.261V1.913Z"/>
    <path d="M130.036,26.746c0-10.975,6.956-15.217,14.762-15.217,7.582,0,13.972,3.96,13.972,15.103,0,1.076-.057,1.641-.171,2.263h-20.701c.452,4.922,2.998,6.901,7.07,6.901,3.791,0,5.43-1.527,6.11-3.903h7.297c-1.472,6.732-6.675,10.182-13.521,10.182-7.465,0-14.819-4.129-14.819-15.329ZM150.965,24.031c-.114-3.394-1.867-6.222-6.391-6.222-3.848,0-6.11,2.148-6.675,6.222h13.066Z"/>
    <path d="M170.431,42.868c.622-1.472.622-2.377-.057-4.017l-10.804-26.756h8.485l6.842,19.005,7.016-19.005h8.485l-12.049,29.64c-3.677,9.108-7.411,11.993-15.839,11.087v-6.956c5.825.734,7.241-1.415,7.92-2.998Z"/>
  </g>
</svg>