<?xml version="1.0" encoding="UTF-8"?>
<svg id="a" data-name="Layer 1" xmlns="http://www.w3.org/2000/svg" width="76.291" height="100" viewBox="0 0 76.291 100">
  <path d="M59.177,80.157l-4.024-6.97c5.173-1.669,8.927-6.525,8.927-12.247v-8.335c0-11.578-7.602-21.406-18.074-24.777L69.381.251h-14.589l-20.328,23.982v-13.114C34.463,5.201,29.648.387,23.731.387h-6.215v79.683c-10.535,1.927-17.516,5.283-17.516,9.104,0,5.979,17.078,10.826,38.146,10.826s38.145-4.847,38.145-10.826c0-3.77-6.81-7.08-17.114-9.017ZM22.985,89.075V5.855h.746c2.902,0,5.263,2.362,5.263,5.264v23.656h9.056c9.83,0,17.83,7.999,17.83,17.83v8.335c0,2.57-2.089,4.661-4.657,4.669v-.002h-17.878v1.454c0,2.374,1.925,4.299,4.299,4.299h7.881l10.227,17.715H22.985Z"/>
  <path d="M38.402,58.544h2.476c1.142,0,2.069-.926,2.069-2.068v-6.039c0-2.793-2.264-5.057-5.057-5.057h-2.476c-1.142,0-2.068.926-2.068,2.068v6.039c0,2.793,2.264,5.057,5.057,5.057Z"/>
</svg>