<?xml version="1.0" encoding="UTF-8"?>
<svg id="Layer_1" data-name="Layer 1" xmlns="http://www.w3.org/2000/svg" viewBox="0 0 276.35 100">
  <path d="M64.6,78.68V23.96h9.53v46.15h21.37v.63c2.88-6.32,4.5-13.33,4.5-20.73C100,22.39,77.61,0,50,0S0,22.39,0,50s22.39,50,50,50c16.94,0,31.9-8.43,40.95-21.32h-26.34Z"/>
  <path d="M111.78,75.82c-4.24-2.54-7.58-5.98-10.05-10.33-2.46-4.34-3.69-9.05-3.69-14.14s1.23-9.79,3.69-14.14c2.46-4.34,5.81-7.8,10.05-10.37,4.24-2.57,8.9-3.85,13.98-3.85s9.83,1.28,14.1,3.85c4.26,2.57,7.61,6.01,10.05,10.33,2.43,4.32,3.65,9.04,3.65,14.18s-1.22,9.8-3.65,14.14c-2.44,4.34-5.79,7.78-10.05,10.33-4.26,2.54-8.96,3.81-14.1,3.81s-9.74-1.27-13.98-3.81ZM135.13,68.08c2.81-1.72,4.99-4.06,6.55-7.03,1.56-2.96,2.34-6.2,2.34-9.69s-.78-6.72-2.34-9.69c-1.56-2.96-3.75-5.32-6.55-7.07-2.81-1.75-5.96-2.62-9.45-2.62s-6.46.87-9.21,2.62c-2.75,1.75-4.92,4.1-6.51,7.07-1.59,2.97-2.38,6.19-2.38,9.69s.79,6.73,2.38,9.69c1.59,2.97,3.76,5.31,6.51,7.03,2.75,1.72,5.82,2.58,9.21,2.58s6.64-.86,9.45-2.58Z"/>
  <path d="M174.4,75.82c-4.32-2.54-7.69-5.97-10.13-10.29-2.44-4.32-3.65-9.01-3.65-14.1s1.23-9.88,3.69-14.22c2.46-4.34,5.82-7.8,10.09-10.37,4.26-2.57,8.96-3.85,14.1-3.85,3.81,0,7.4.71,10.76,2.14,3.36,1.43,6.26,3.42,8.7,5.96l-6.83,6.04c-1.64-1.64-3.56-2.93-5.76-3.85-2.2-.93-4.49-1.39-6.87-1.39-3.39,0-6.49.89-9.29,2.66-2.81,1.77-5.02,4.16-6.63,7.15-1.62,2.99-2.42,6.23-2.42,9.73s.81,6.66,2.42,9.65c1.61,2.99,3.83,5.39,6.63,7.19,2.81,1.8,5.96,2.7,9.45,2.7,2.7,0,5.27-.54,7.7-1.63,2.43-1.08,4.37-2.59,5.8-4.53,1.43-1.93,2.14-4.04,2.14-6.31h-15.65v-7.94h26.13c0,6.46-1.1,11.86-3.3,16.2s-5.24,7.57-9.13,9.69c-3.89,2.12-8.41,3.18-13.54,3.18s-10.1-1.27-14.42-3.81Z"/>
  <path d="M234.57,75.82c-4.24-2.54-7.58-5.98-10.05-10.33-2.46-4.34-3.69-9.05-3.69-14.14s1.23-9.79,3.69-14.14c2.46-4.34,5.81-7.8,10.05-10.37,4.24-2.57,8.9-3.85,13.98-3.85s9.83,1.28,14.1,3.85c4.26,2.57,7.61,6.01,10.05,10.33,2.43,4.32,3.65,9.04,3.65,14.18s-1.22,9.8-3.65,14.14c-2.44,4.34-5.79,7.78-10.05,10.33-4.26,2.54-8.96,3.81-14.1,3.81s-9.74-1.27-13.98-3.81ZM257.92,68.08c2.81-1.72,4.99-4.06,6.55-7.03,1.56-2.96,2.34-6.2,2.34-9.69s-.78-6.72-2.34-9.69c-1.56-2.96-3.75-5.32-6.55-7.07-2.81-1.75-5.96-2.62-9.45-2.62s-6.46.87-9.21,2.62c-2.75,1.75-4.92,4.1-6.51,7.07-1.59,2.97-2.38,6.19-2.38,9.69s.79,6.73,2.38,9.69c1.59,2.97,3.76,5.31,6.51,7.03,2.75,1.72,5.82,2.58,9.21,2.58s6.64-.86,9.45-2.58Z"/>
</svg>