<?xml version="1.0" encoding="UTF-8"?>
<svg id="Content" xmlns="http://www.w3.org/2000/svg" viewBox="0 0 93.76 100">
  <defs>
    <style>
      .cls-1 {
        fill: #5dc8dc;
      }

      .cls-2 {
        fill: #010101;
      }
    </style>
  </defs>
  <path class="cls-1" d="M50.79,88.46c4.34-4.37,10.33-7.09,16.97-7.09,9.81,0,18.24,5.9,21.94,14.35V3.88H14.51v28.97c5.64-3.2,12.16-5.03,19.1-5.03,12.44,0,23.42,5.76,30.5,14.87,1.22,1.55,1.95,3.52,1.95,5.65,0,5.05-4.09,9.15-9.15,9.15-2.5,0-4.66-.95-6.31-2.57-5-5.04-12.23-7.88-20.1-6.89-10.67,1.34-19.18,9.75-20.62,20.41-1.99,14.71,9.4,27.29,23.72,27.29,6.73,0,12.82-2.78,17.17-7.26"/>
  <path class="cls-2" d="M93.75,0H10.47v30.8c-3.98,2.6-7.55,5.86-10.47,9.62l1.03.8c4.83-2.89,16.53-9.17,32.59-9.17,10.77,0,20.73,4.85,27.32,13.33.71.9,1.08,1.99,1.08,3.14,0,2.81-2.29,5.1-5.1,5.1-1.34,0-2.5-.47-3.45-1.39-6.16-6.2-14.71-9.13-23.45-8.04-12.52,1.57-22.44,11.39-24.13,23.88-1.09,8.09,1.33,16.21,6.64,22.3,5.32,6.09,13.01,9.58,21.09,9.58,7.62,0,14.74-3.01,20.06-8.47,3.77-3.79,8.77-5.88,14.08-5.88,10.84,0,18.34,8.74,18.93,14.4h7.07S93.75,0,93.75,0ZM85.65,83.96c-4.93-4.09-11.22-6.46-17.89-6.46-7.49,0-14.53,2.94-19.84,8.28l-.03.03c-3.78,3.89-8.85,6.03-14.27,6.03-5.74,0-11.2-2.48-14.99-6.81-3.83-4.39-5.51-10.03-4.72-15.88,1.2-8.86,8.72-17.09,19.69-17.09,5.32,0,10.37,2.08,14.14,5.88l.04.03c2.48,2.44,5.65,3.74,9.15,3.74,7.28,0,13.2-5.92,13.2-13.2,0-2.94-.91-5.67-2.79-8.12-9.97-12.94-24.13-16.47-33.66-16.47-4.8,0-9.64.74-15.11,2.75V8.1h67.08v75.86Z"/>
</svg>