<?xml version="1.0" encoding="UTF-8"?>
<svg id="Layer_1" data-name="Layer 1" xmlns="http://www.w3.org/2000/svg" width="76.291" height="100" xmlns:xlink="http://www.w3.org/1999/xlink" viewBox="0 0 76.291 100">
  <defs>
    <style>
      .cls-1 {
        fill: none;
      }

      .cls-2 {
        fill: #060808;
      }

      .cls-3 {
        fill: #fff;
      }

      .cls-4 {
        clip-path: url(#clippath);
      }

      .cls-5 {
        fill: #060707;
      }
    </style>
    <clipPath id="clippath">
      <rect class="cls-1" x="17.755" y=".251" width="51.865" height="88.923"/>
    </clipPath>
  </defs>
  <ellipse class="cls-5" cx="38.384" cy="89.174" rx="38.146" ry="10.826"/>
  <g class="cls-4">
    <g>
      <path class="cls-3" d="M59.943,89.075l-10.706-19.364h1.838c4.844,0,8.77-3.926,8.77-8.77v-8.335c0-12.112-9.819-21.931-21.931-21.931,0,0-3.817,0-6.321,0V11.119c0-4.417-3.581-7.997-7.998-7.997h-3.479v85.954h39.827Z"/>
      <path class="cls-2" d="M35.652,45.38h2.476c2.791,0,5.057,2.266,5.057,5.057v6.039c0,1.142-.927,2.068-2.068,2.068h-2.476c-2.791,0-5.057-2.266-5.057-5.057v-6.039c0-1.142.927-2.068,2.068-2.068Z"/>
      <path d="M64.319,60.94v-8.335c0-11.578-7.602-21.406-18.074-24.777L69.62.251h-14.589l-20.328,23.982v-13.114C34.702,5.201,29.887.387,23.97.387h-6.215v92.557h5.469V5.855h.746c2.902,0,5.263,2.362,5.263,5.264v23.656h9.056c9.83,0,17.83,7.999,17.83,17.83v8.335c0,2.57-2.089,4.661-4.657,4.669v-.002h-17.878v1.454c0,2.374,1.925,4.299,4.299,4.299h7.881l12.462,21.584h8.574l-11.407-19.758c5.173-1.669,8.927-6.525,8.927-12.247Z"/>
    </g>
  </g>
</svg>